HIERARCHY
ROOT Hips
{
	OFFSET -0.001795 -0.223333 0.028219
	CHANNELS 6 Xposition Yposition Zposition Zrotation Yrotation Xrotation 
	JOINT LeftUpLeg
	{
		OFFSET 0.069520 -0.091406 -0.006815
		CHANNELS 3 Zrotation Yrotation Xrotation
		JOINT LeftLeg
		{
			OFFSET 0.034277 -0.375199 -0.004496
			CHANNELS 3 Zrotation Yrotation Xrotation
			JOINT LeftFoot
			{
				OFFSET -0.013596 -0.397961 -0.043693
				CHANNELS 3 Zrotation Yrotation Xrotation
				JOINT LeftToe
				{
					OFFSET 0.026358 -0.055791 0.119288
					CHANNELS 3 Zrotation Yrotation Xrotation
					End Site
					{
						OFFSET 0.000000 0.000000 0.000000
					}
				}
			}
		}
	}
	JOINT RightUpLeg
	{
		OFFSET -0.067670 -0.090522 -0.004320
		CHANNELS 3 Zrotation Yrotation Xrotation
		JOINT RightLeg
		{
			OFFSET -0.038290 -0.382569 -0.008850
			CHANNELS 3 Zrotation Yrotation Xrotation
			JOINT RightFoot
			{
				OFFSET 0.015774 -0.398415 -0.042312
				CHANNELS 3 Zrotation Yrotation Xrotation
				JOINT RightToe
				{
					OFFSET -0.025372 -0.048144 0.123348
					CHANNELS 3 Zrotation Yrotation Xrotation
					End Site
					{
						OFFSET 0.000000 0.000000 0.000000
					}
				}
			}
		}
	}
	JOINT Spine
	{
		OFFSET -0.002533 0.108963 -0.026696
		CHANNELS 3 Zrotation Yrotation Xrotation
		JOINT Spine1
		{
			OFFSET 0.005487 0.135180 0.001092
			CHANNELS 3 Zrotation Yrotation Xrotation
			JOINT Spine2
			{
				OFFSET 0.001457 0.052922 0.025425
				CHANNELS 3 Zrotation Yrotation Xrotation
				JOINT Neck
				{
					OFFSET -0.002778 0.213870 -0.042857
					CHANNELS 3 Zrotation Yrotation Xrotation
					JOINT Head
					{
						OFFSET 0.005152 0.064970 0.051349
						CHANNELS 3 Zrotation Yrotation Xrotation
						End Site
						{
							OFFSET 0.000000 0.000000 0.000000
						}
					}
				}
				JOINT LeftShoulder
				{
					OFFSET 0.078845 0.121749 -0.034090
					CHANNELS 3 Zrotation Yrotation Xrotation
					JOINT LeftArm
					{
						OFFSET 0.090977 0.030469 -0.008868
						CHANNELS 3 Zrotation Yrotation Xrotation
						JOINT LeftForeArm
						{
							OFFSET 0.259612 -0.012772 -0.027456
							CHANNELS 3 Zrotation Yrotation Xrotation
							JOINT LeftHand
							{
								OFFSET 0.249234 0.008986 -0.001171
								CHANNELS 3 Zrotation Yrotation Xrotation
								End Site
								{
									OFFSET 0.000000 0.000000 0.000000
								}
							}
						}
					}
				}
				JOINT RightShoulder
				{
					OFFSET -0.081759 0.118833 -0.038615
					CHANNELS 3 Zrotation Yrotation Xrotation
					JOINT RightArm
					{
						OFFSET -0.096012 0.032551 -0.009143
						CHANNELS 3 Zrotation Yrotation Xrotation
						JOINT RightForeArm
						{
							OFFSET -0.253742 -0.013329 -0.021401
							CHANNELS 3 Zrotation Yrotation Xrotation
							JOINT RightHand
							{
								OFFSET -0.255298 0.007772 -0.005559
								CHANNELS 3 Zrotation Yrotation Xrotation
								End Site
								{
									OFFSET 0.000000 0.000000 0.000000
								}
							}
						}
					}
				}
			}
		}
	}
}
MOTION
Frames: 5
Frame Time: 0.050000
0.040184 0.911024 0.474545 1.272755 -10.921312 9.627194 8.026051 -0.118071 -20.889438 -5.525432 1.007648 8.704905 6.700710 14.219618 8.076815 0.000000 0.000000 0.000000 -13.600441 1.028269 -23.329295 8.602637 -0.889276 10.845204 -5.961774 -16.970258 9.409425 0.000000 0.000000 0.000000 5.653856 -2.078189 32.403927 -5.027629 1.605515 -24.126124 -6.866299 6.784410 24.179454 18.240384 -3.635971 -45.591673 0.000000 0.000000 0.000000 -11.845450 -30.386116 13.555985 -47.910774 -39.869989 8.996670 41.708332 -60.681362 -20.799250 0.000000 0.000000 0.000000 21.018148 15.597126 8.102310 66.387351 48.879644 22.222867 -30.197240 59.222679 -12.035396 0.000000 0.000000 0.000000 
0.039775 0.911230 0.473894 1.173801 -11.188963 9.776778 8.013583 -0.103418 -21.000905 -5.483852 1.007883 8.748661 6.683179 14.166611 7.974376 0.000000 0.000000 0.000000 -13.439947 1.075313 -23.517039 8.625978 -0.883496 10.906218 -5.821532 -16.696953 9.179178 0.000000 0.000000 0.000000 5.591885 -2.031523 32.331740 -4.812660 1.551048 -23.976941 -6.926589 6.767800 24.078025 18.105642 -3.615911 -45.489001 0.000000 0.000000 0.000000 -11.147933 -30.362082 13.401948 -48.186210 -39.824760 9.078439 41.173983 -61.132522 -20.631478 0.000000 0.000000 0.000000 21.332748 15.538693 8.060338 66.795195 48.080528 21.838461 -29.826094 61.027847 -12.279179 0.000000 0.000000 0.000000 
0.039349 0.911066 0.473421 1.195948 -11.461939 9.791111 7.977814 -0.089406 -21.226897 -5.508329 1.036115 9.111991 6.725682 14.219048 7.919771 0.000000 0.000000 0.000000 -13.433011 1.101549 -23.712226 8.715175 -0.890429 11.058488 -5.818529 -16.704856 9.097471 0.000000 0.000000 0.000000 5.561354 -1.993941 32.378491 -4.858279 1.557675 -24.036840 -6.843665 6.663052 24.185106 17.832513 -3.523867 -45.596991 0.000000 0.000000 0.000000 -10.711593 -30.455775 13.381948 -48.061407 -39.909965 9.096122 40.140104 -61.409291 -20.074544 0.000000 0.000000 0.000000 21.750291 15.289507 7.883545 66.924162 47.197764 21.223978 -28.804129 62.972345 -12.181280 0.000000 0.000000 0.000000 
0.038791 0.911198 0.473242 1.170323 -11.718335 9.803367 8.031677 -0.060696 -21.312580 -5.571658 1.069580 9.372448 6.634095 14.033805 7.637705 0.000000 0.000000 0.000000 -13.314480 1.138158 -23.841094 8.725445 -0.883955 11.172079 -5.767854 -16.631862 9.072241 0.000000 0.000000 0.000000 5.414038 -1.918671 32.367424 -4.589252 1.490646 -23.871894 -6.863558 6.562188 24.034759 17.540635 -3.464861 -45.442257 0.000000 0.000000 0.000000 -10.309881 -30.459692 13.322670 -47.882490 -39.848001 9.048035 39.189807 -61.651187 -19.566789 0.000000 0.000000 0.000000 22.160231 15.426828 7.933207 66.864506 46.272280 20.530726 -28.349724 64.588249 -12.349771 0.000000 0.000000 0.000000 
0.038011 0.910999 0.473380 1.118367 -11.927571 9.879715 8.073343 -0.039075 -21.390715 -5.537732 1.078555 9.601964 6.629774 14.008008 7.416846 0.000000 0.000000 0.000000 -13.156630 1.175165 -23.882154 8.672984 -0.868114 11.269692 -5.691189 -16.504328 9.056330 0.000000 0.000000 0.000000 5.356513 -1.878078 32.272213 -4.474590 1.460302 -23.756770 -6.807180 6.399635 23.941438 17.409702 -3.490623 -45.182374 0.000000 0.000000 0.000000 -10.095829 -30.404595 13.295660 -47.585531 -39.734778 8.938454 38.379462 -62.054701 -19.186911 0.000000 0.000000 0.000000 22.392028 15.318019 7.801698 67.079705 45.010174 19.722213 -26.673500 66.406458 -11.772955 0.000000 0.000000 0.000000 
